PathFileType	4	(X/Y/Z)	/Users/itak/Documents/Research/Walk-IL/dataset/trc/00105_00007.trc
DataRate	CameraRate	NumFrames	NumMarkers	Units	OrigDataRate	OrigDataStartFrame	OrigNumFrames
100.000000	100.000000	4	53	mm	100.000000	202	539
Frame#	Time	RPSI			LPSI			L3			STRN			T10			C7			CLAV			RBAK			LBAK			LSHO			LUPA			LAEL			LAOL			LWTS			LWPS			LFRA			LIFD			LHPS			LHTS			RSHO			RUPA			RAEL			RAOL			RWTS			RWPS			RFRA			RIFD			RHTS			RHPS			RBHD			LFHD			RFHD			LBHD			LHIP			RHIP			RASI			LASI			LKNE			LTHI			LANK			LTIP			LTOE			LMT1			LMT5			LHEE			RKNE			RTHI			RANK			RTIP			RTOE			RMT1			RMT5			RHEE			
		X1	Y1	Z1	X2	Y2	Z2	X3	Y3	Z3	X4	Y4	Z4	X5	Y5	Z5	X6	Y6	Z6	X7	Y7	Z7	X8	Y8	Z8	X9	Y9	Z9	X10	Y10	Z10	X11	Y11	Z11	X12	Y12	Z12	X13	Y13	Z13	X14	Y14	Z14	X15	Y15	Z15	X16	Y16	Z16	X17	Y17	Z17	X18	Y18	Z18	X19	Y19	Z19	X20	Y20	Z20	X21	Y21	Z21	X22	Y22	Z22	X23	Y23	Z23	X24	Y24	Z24	X25	Y25	Z25	X26	Y26	Z26	X27	Y27	Z27	X28	Y28	Z28	X29	Y29	Z29	X30	Y30	Z30	X31	Y31	Z31	X32	Y32	Z32	X33	Y33	Z33	X34	Y34	Z34	X35	Y35	Z35	X36	Y36	Z36	X37	Y37	Z37	X38	Y38	Z38	X39	Y39	Z39	X40	Y40	Z40	X41	Y41	Z41	X42	Y42	Z42	X43	Y43	Z43	X44	Y44	Z44	X45	Y45	Z45	X46	Y46	Z46	X47	Y47	Z47	X48	Y48	Z48	X49	Y49	Z49	X50	Y50	Z50	X51	Y51	Z51	X52	Y52	Z52	X53	Y53	Z53	

203	2.02	-1719.536743164062	1103.540893554688	-97.81375885009766	-1717.226928710938	1112.068969726562	-232.4101409912109	-1723.653564453125	1148.085693359375	-164.3188323974609	-1477.960327148438	1325.171264648438	-159.0912933349609	-1734.75634765625	1301.916870117188	-153.7398986816406	-1666.477905273438	1589.109619140625	-169.7133331298828	-1498.052368164062	1463.56298828125	-164.9691772460938	-1741.57470703125	1414.459838867188	-77.3516845703125	-1678.868408203125	1570.014770507812	-271.109619140625	-1596.593139648438	1544.22216796875	-342.4262390136719	-1639.913818359375	1417.51123046875	-409.9519348144531	-1671.029174804688	1201.1982421875	-433.4936218261719	-1734.515991210938	1201.826782226562	-372.7602233886719	-1627.781494140625	926.9090576171875	-396.5972595214844	-1714.208862304688	920.6874389648438	-420.4676513671875	-1680.26220703125	1084.22021484375	-439.3455200195312	-1662.441772460938	736.8452758789062	-373.2811584472656	-1703.298828125	840.8502197265625	-422.3444519042969	-1633.979248046875	835.654052734375	-409.10888671875	-1608.495727539062	1567.749389648438	9.850991249084473	-1628.124267578125	1497.234985351562	76.088623046875	-1640.805053710938	1202.341796875	115.0830764770508	-1657.01025390625	1196.015869140625	19.42563247680664	-1475.421752929688	972.9547729492188	93.61940002441406	-1544.658081054688	949.3174438476562	132.9909057617188	-1609.819702148438	1130.271606445312	130.3358306884766	-1434.260009765625	780.4541625976562	77.62506103515625	-1434.315063476562	867.8179931640625	98.11703491210938	-1497.396362304688	853.9927368164062	134.6188812255859	-1624.492065429688	1743.64111328125	-90.36910247802734	-1473.484008789062	1818.685546875	-233.7594451904297	-1464.48291015625	1821.697143554688	-104.0474624633789	-1640.816040039062	1744.227661132812	-225.1441192626953	-1622.249633789062	1025.7685546875	-344.3466186523438	-1605.400634765625	994.8048095703125	20.89928817749023	-1516.683715820312	1064.126342773438	-24.56476593017578	-1515.693969726562	1080.507202148438	-288.7269897460938	-1432.108764648438	553.38037109375	-313.6214904785156	-1509.441162109375	681.6152954101562	-348.312255859375	-1379.716430664062	37.637451171875	-310.7304077148438	-1450.934814453125	289.0259704589844	-342.2549743652344	-1168.451049804688	97.55063629150391	-243.6592864990234	-1243.0419921875	79.06581115722656	-213.3571014404297	-1256.526977539062	54.63468551635742	-326.1252746582031	-1450.753540039062	29.65461921691895	-251.1079864501953	-1676.631225585938	507.9068908691406	-36.87906265258789	-1610.622802734375	781.3269653320312	0.9576345682144165	-1908.961791992188	39.95836639404297	-62.11835098266602	-1733.897094726562	380.4992980957031	-28.81423187255859	-1679.643310546875	37.7730712890625	-119.6314315795898	-1739.68994140625	28.70173835754395	-158.0125579833984	-1775.89599609375	36.32798767089844	-40.74934005737305	-1968.869995117188	51.92372894287109	-108.0417251586914	
204	2.03	-1712.301391601562	1103.372680664062	-99.62709808349609	-1709.248046875	1111.834228515625	-234.1916046142578	-1716.175170898438	1147.740234375	-166.1542663574219	-1470.686645507812	1324.8916015625	-159.9348754882812	-1727.368041992188	1301.396728515625	-155.3855438232422	-1659.53173828125	1588.749877929688	-171.4070892333984	-1490.850708007812	1463.254638671875	-166.1676483154297	-1734.767456054688	1414.15185546875	-79.02997589111328	-1671.639282226562	1569.462890625	-272.80859375	-1589.189208984375	1543.615234375	-343.9392395019531	-1632.466186523438	1416.773315429688	-411.3073425292969	-1663.936889648438	1200.488891601562	-434.4777221679688	-1727.35400390625	1201.287353515625	-373.6670837402344	-1621.59228515625	926.0538330078125	-397.37744140625	-1708.013427734375	920.13525390625	-421.1812133789062	-1673.525512695312	1083.541748046875	-440.2097778320312	-1656.943603515625	736.168212890625	-373.9321594238281	-1697.409545898438	840.2802124023438	-423.01513671875	-1628.1025390625	834.833984375	-409.8759765625	-1601.90673828125	1567.564208984375	8.385263442993164	-1621.539916992188	1497.106079101562	74.66907501220703	-1633.839233398438	1202.197143554688	113.7858276367188	-1649.90087890625	1195.755859375	18.12548065185547	-1469.318359375	972.1806030273438	92.91810607910156	-1538.715209960938	948.933837890625	132.2752532958984	-1603.088989257812	1130.119995117188	129.2098846435547	-1428.981323242188	779.500732421875	77.40297698974609	-1428.554565429688	866.9366455078125	97.70200347900391	-1491.82080078125	853.4091796875	134.1916656494141	-1617.724487304688	1743.451904296875	-92.07160949707031	-1466.541870117188	1818.293579101562	-235.3672180175781	-1457.747192382812	1821.538696289062	-105.6442413330078	-1633.870727539062	1743.817993164062	-226.8935699462891	-1613.825927734375	1025.386840820312	-345.5830993652344	-1598.876098632812	994.6506958007812	19.72982406616211	-1509.836303710938	1063.84814453125	-25.22975158691406	-1507.523681640625	1080.094970703125	-289.42138671875	-1426.853881835938	551.8046264648438	-313.6573791503906	-1503.069213867188	680.3588256835938	-349.1138305664062	-1375.451782226562	36.80931854248047	-310.5208740234375	-1445.696411132812	287.873046875	-342.2515258789062	-1163.375732421875	93.96715545654297	-243.2424621582031	-1238.250732421875	76.35226440429688	-212.9595947265625	-1252.1826171875	52.69416046142578	-325.8143310546875	-1446.573852539062	29.53632736206055	-250.9089813232422	-1671.327514648438	507.888916015625	-37.41723251342773	-1604.605102539062	781.2543334960938	0.01381390634924173	-1908.662475585938	41.88407897949219	-62.09587478637695	-1729.860107421875	380.9302673339844	-29.13846969604492	-1679.4541015625	37.61040496826172	-119.6417007446289	-1739.538330078125	28.83302879333496	-157.9046783447266	-1775.666015625	36.33588790893555	-40.70322799682617	-1968.413940429688	54.95560836791992	-107.9744567871094	
205	2.04	-1704.866455078125	1103.367797851562	-101.5116958618164	-1701.09765625	1111.802978515625	-236.0449066162109	-1708.52880859375	1147.57177734375	-168.0713806152344	-1463.284545898438	1324.828002929688	-160.8570251464844	-1719.873657226562	1301.05712890625	-157.1320343017578	-1652.509033203125	1588.575439453125	-173.1963500976562	-1483.486206054688	1463.144775390625	-167.4932556152344	-1727.8564453125	1413.99755859375	-80.83419036865234	-1664.317138671875	1569.101684570312	-274.6065979003906	-1581.671264648438	1543.214721679688	-345.5249328613281	-1624.8369140625	1416.2255859375	-412.739013671875	-1656.558471679688	1199.944580078125	-435.5266723632812	-1719.911865234375	1200.891357421875	-374.6478881835938	-1615.052368164062	925.377685546875	-398.2109985351562	-1701.454956054688	919.7395629882812	-421.9563903808594	-1666.46875	1083.028930664062	-441.134521484375	-1651.032592773438	735.6602783203125	-374.6325378417969	-1691.134887695312	839.8735961914062	-423.7430725097656	-1621.855102539062	834.1931762695312	-410.699951171875	-1595.272094726562	1567.551391601562	6.833542346954346	-1614.924560546875	1497.129638671875	73.15028381347656	-1626.900756835938	1202.21875	112.3607711791992	-1642.7783203125	1195.681640625	16.68966102600098	-1463.306884765625	971.5397338867188	92.17793273925781	-1532.893188476562	948.7073974609375	131.4745483398438	-1596.441772460938	1130.136108398438	127.9737014770508	-1423.875122070312	778.6643676757812	77.15376281738281	-1423.01513671875	866.112548828125	97.21007537841797	-1486.4306640625	852.96923828125	133.7047729492188	-1610.877075195312	1743.484497070312	-93.84982299804688	-1459.514038085938	1818.097900390625	-237.0498657226562	-1450.927368164062	1821.58349609375	-107.3129577636719	-1626.836181640625	1743.624389648438	-228.7159423828125	-1605.244384765625	1025.24658203125	-346.9092102050781	-1592.10302734375	994.6535034179688	18.43095588684082	-1502.735717773438	1063.773681640625	-26.01198577880859	-1499.1787109375	1079.897583007812	-290.2078857421875	-1421.428466796875	550.441162109375	-313.6858825683594	-1496.455932617188	679.358154296875	-349.8769836425781	-1372.600952148438	36.04532241821289	-310.3245849609375	-1440.948974609375	286.8798522949219	-342.1639709472656	-1159.397094726562	89.30794525146484	-242.9422149658203	-1234.615600585938	72.93350219726562	-212.6208648681641	-1249.214721679688	50.31987380981445	-325.6001892089844	-1443.761108398438	29.65773963928223	-250.6631927490234	-1665.691772460938	507.9924011230469	-38.04384231567383	-1598.27734375	781.3262329101562	-1.048974394798279	-1908.297119140625	44.05130004882812	-62.041015625	-1725.569580078125	381.5280456542969	-29.50821876525879	-1679.220092773438	37.45383071899414	-119.6192092895508	-1739.333129882812	29.0178108215332	-157.7770538330078	-1775.342407226562	36.37060165405273	-40.65410995483398	-1967.824829101562	58.32149887084961	-107.8836135864258	
206	2.05	-1697.2373046875	1103.531616210938	-103.4273529052734	-1692.801391601562	1112.002197265625	-237.9343872070312	-1700.717529296875	1147.601440429688	-170.0261840820312	-1455.759033203125	1325.004638671875	-161.8602600097656	-1712.297729492188	1300.9267578125	-158.9600677490234	-1645.404541015625	1588.605834960938	-175.0672607421875	-1475.9873046875	1463.255859375	-168.9252166748047	-1720.8310546875	1414.015258789062	-82.74694061279297	-1656.902709960938	1568.957153320312	-276.4921264648438	-1574.04052734375	1543.045532226562	-347.1739807128906	-1617.028076171875	1415.895751953125	-414.2428894042969	-1648.885009765625	1199.590087890625	-436.6405944824219	-1712.18408203125	1200.663940429688	-375.7073059082031	-1608.150268554688	924.9024047851562	-399.1012573242188	-1694.519409179688	919.5238647460938	-422.7982177734375	-1659.080200195312	1082.705688476562	-442.1215209960938	-1644.717407226562	735.3461303710938	-375.3777160644531	-1684.46728515625	839.65087890625	-424.5310974121094	-1615.221923828125	833.751953125	-411.57275390625	-1588.584594726562	1567.737182617188	5.201256275177002	-1608.280639648438	1497.33544921875	71.53773498535156	-1620.000610351562	1202.431030273438	110.8069381713867	-1635.6474609375	1195.819091796875	15.1145133972168	-1457.394287109375	971.0648803710938	91.39201354980469	-1527.198608398438	948.664794921875	130.5835876464844	-1589.88916015625	1130.342895507812	126.622673034668	-1418.941040039062	777.9785766601562	76.87359619140625	-1417.713623046875	865.3847045898438	96.65378570556641	-1481.232421875	852.7056884765625	133.1532287597656	-1603.951049804688	1743.761840820312	-95.70102691650391	-1452.404418945312	1818.1240234375	-238.8051147460938	-1444.023803710938	1821.85107421875	-109.0492630004883	-1619.715087890625	1743.6708984375	-230.6070709228516	-1596.546752929688	1025.395141601562	-348.3229370117188	-1585.057739257812	994.8055419921875	17.01826667785645	-1495.364868164062	1063.914916992188	-26.92788314819336	-1490.694213867188	1079.950927734375	-291.109130859375	-1415.868041992188	549.3484497070312	-313.7152404785156	-1489.636962890625	678.6719970703125	-350.5870361328125	-1370.913208007812	35.39903259277344	-310.1472778320312	-1436.622192382812	286.0935974121094	-342.0242309570312	-1156.38720703125	83.87830352783203	-242.6570739746094	-1231.9931640625	69.03951263427734	-212.2835083007812	-1247.372192382812	47.72768020629883	-325.4398193359375	-1442.075073242188	29.97252464294434	-250.4112701416016	-1659.676025390625	508.2077026367188	-38.77387619018555	-1591.612060546875	781.5391845703125	-2.245142936706543	-1907.8427734375	46.48181533813477	-61.94770812988281	-1720.9970703125	382.2919921875	-29.93617820739746	-1678.941284179688	37.30583953857422	-119.5617599487305	-1739.066162109375	29.26694679260254	-157.6285095214844	-1774.936279296875	36.433349609375	-40.60951232910156	-1967.081665039062	62.04301071166992	-107.7632598876953	
